<svg width="1660" height="457" viewBox="0 0 1660 457" fill="none" xmlns="http://www.w3.org/2000/svg">
<g clip-path="url(#clip0_192_225)">
<rect width="1660" height="457" fill="#F5F6F6"/>
<path d="M653.712 134.6H684.664V136.72C677.597 142.232 668.128 162.796 656.256 198.412C641.416 245.193 632.653 273.46 629.968 283.212L604.104 285.756C604.104 281.092 599.581 265.051 590.536 237.632C569.901 174.739 556.404 141.101 550.044 136.72V134.6H584.6V138.204C584.6 145.695 587.497 158.768 593.292 177.424L621.064 267.1C633.642 223.711 640.497 199.896 641.628 195.656C642.758 191.275 644.03 186.611 645.444 181.664C648.977 169.227 651.168 160.605 652.016 155.8C652.864 150.853 653.429 144.988 653.712 138.204V134.6ZM747.767 240.6C741.972 238.48 735.259 237.42 727.627 237.42C720.136 237.42 714.695 238.621 711.303 241.024C709.183 244.275 708.123 248.656 708.123 254.168C708.123 259.539 709.607 263.779 712.575 266.888C715.543 269.997 719.217 271.552 723.599 271.552C728.121 271.552 732.715 270.421 737.379 268.16C742.043 265.757 745.505 263.213 747.767 260.528V240.6ZM751.159 271.128C742.537 280.597 732.785 285.332 721.903 285.332C711.161 285.332 702.681 283 696.463 278.336C690.385 273.672 687.347 266.181 687.347 255.864C687.347 245.405 690.951 237.915 698.159 233.392C705.508 228.869 715.825 226.608 729.111 226.608L747.767 227.244V215.16C747.767 207.669 745.929 201.592 742.255 196.928C738.58 192.264 732.997 189.932 725.507 189.932C719.995 190.073 711.161 195.373 699.007 205.832C694.908 200.603 692.011 193.819 690.315 185.48C704.307 180.957 717.168 178.696 728.899 178.696C740.629 178.696 750.028 181.735 757.095 187.812C764.161 193.889 767.695 202.511 767.695 213.676V249.292C767.836 255.652 768.825 261.588 770.663 267.1C772.641 272.471 775.185 276.216 778.295 278.336L778.719 280.456L756.035 285.968C754.197 281.445 752.572 276.499 751.159 271.128ZM869.859 191.628L813.467 270.492C836.645 270.492 854.665 268.443 867.527 264.344L869.859 265.404L863.923 283H792.903L787.815 272.824L844.419 193.96C829.579 193.96 819.12 194.384 813.043 195.232C806.965 195.939 801.453 197.493 796.507 199.896L794.175 198.412L798.415 180.604L864.559 181.24L869.859 191.628ZM931.504 285.332C916.664 285.332 905.075 280.739 896.736 271.552C888.398 262.365 884.228 250.281 884.228 235.3C884.228 220.177 888.892 206.963 898.22 195.656C907.548 184.349 919.138 178.696 932.988 178.696C958.287 178.696 970.936 194.313 970.936 225.548L963.092 233.18H906.7C906.7 245.052 909.244 253.956 914.332 259.892C919.42 265.828 926.275 268.796 934.896 268.796C938.288 268.796 943.094 267.807 949.312 265.828C955.531 263.708 961.043 261.235 965.848 258.408L971.148 266.464C968.463 269.149 962.598 272.965 953.552 277.912C944.648 282.859 937.299 285.332 931.504 285.332ZM929.172 189.296C923.236 189.296 918.643 190.639 915.392 193.324C912.707 196.999 910.587 201.663 909.032 207.316C907.478 212.969 906.7 217.916 906.7 222.156L950.16 220.46C950.16 199.684 943.164 189.296 929.172 189.296ZM1057.89 178.696C1068.06 178.696 1075.91 181.947 1081.42 188.448C1087.07 194.949 1089.9 204.277 1089.9 216.432V246.96C1089.9 260.387 1092.02 271.905 1096.26 281.516V283H1066.37V281.516C1068.77 274.449 1069.97 265.051 1069.97 253.32V220.884C1069.97 212.687 1068.7 206.539 1066.15 202.44C1063.75 198.2 1058.8 196.08 1051.31 196.08C1043.82 196.08 1034.21 199.684 1022.48 206.892V246.96C1022.48 260.669 1024.53 272.188 1028.63 281.516V283H998.95V281.516C1001.35 274.449 1002.55 265.051 1002.55 253.32V217.28C1002.55 211.203 1001.28 205.267 998.738 199.472C996.336 193.536 993.509 189.579 990.258 187.6L990.046 185.056L1017.82 178.484L1019.09 180.604C1020.22 185.833 1021.07 191.133 1021.63 196.504C1026.86 192.405 1030.89 189.367 1033.72 187.388C1036.69 185.409 1040.43 183.501 1044.95 181.664C1049.48 179.685 1053.79 178.696 1057.89 178.696Z" fill="black"/>
<path fill-rule="evenodd" clip-rule="evenodd" d="M1111.63 779.154C1099.7 778.21 1092.93 774.069 1085.23 763.013C1084.83 762.443 1083.54 760.589 1082.35 758.892C1081.16 757.198 1079.51 754.662 1078.68 753.259C1077.86 751.857 1074.45 746.358 1071.12 741.038C1067.78 735.717 1064.57 730.597 1063.99 729.658C1063.41 728.719 1062.38 727.072 1061.7 725.999C1058.43 720.791 1052.5 708.929 1052.5 707.593C1052.5 707.382 1052.07 706.277 1051.55 705.14C1050.61 703.096 1048.03 693.681 1047.37 689.9C1047.19 688.827 1046.82 687.686 1046.55 687.362C1046.28 687.037 1046.18 686.581 1046.33 686.346C1046.47 686.113 1046.26 684.73 1045.86 683.277C1045.46 681.823 1044.94 679.645 1044.7 678.438C1044.47 677.23 1043.71 673.613 1043.01 670.399C1040.06 656.744 1042.07 650.188 1050.63 645.614C1052.97 644.364 1059.12 640.678 1059.83 640.104C1068.48 633.078 1079.99 630.467 1095.13 632.097C1103.08 632.953 1119.09 634.993 1120.43 635.32C1122.25 635.765 1127.04 636.484 1131.18 636.932C1133.2 637.151 1135.17 637.465 1135.58 637.631C1135.98 637.794 1137.85 638.14 1139.73 638.395C1146 639.248 1148.52 639.913 1152.93 641.874C1154 642.352 1155.98 643.229 1157.32 643.822C1159.81 644.919 1162.93 647.511 1162.94 648.487C1162.94 648.781 1163.6 649.931 1164.41 651.043C1165.22 652.153 1165.88 653.669 1165.89 654.408C1165.89 655.149 1166.31 656.661 1166.81 657.771C1168.63 661.756 1169.93 681.09 1169.73 700.878C1169.69 704.23 1169.67 707.305 1169.69 707.707C1171.31 761.973 1168.79 774.391 1155.37 778.236C1150.65 779.586 1124.12 780.145 1111.63 779.154ZM799.116 778.917C776.761 777.763 774.872 776.049 781.774 763.182C785.57 756.104 790.122 752.326 808.645 740.88C813.221 738.053 817.816 735.339 820.618 733.813C822.498 732.786 826.788 730.254 830.146 728.182C835.123 725.117 850.143 716.317 856.78 712.581C857.586 712.127 862.206 709.383 867.043 706.483C871.881 703.583 876.72 700.778 877.795 700.251C878.87 699.723 880.08 699.102 880.483 698.869C883.112 697.351 891.358 692.425 893.187 691.279C896.46 689.228 898.99 687.743 904.035 684.909C912.568 680.114 913.956 679.316 914.446 678.925C914.715 678.708 916.694 677.602 918.845 676.462C920.993 675.324 923.93 673.766 925.368 673C933.088 668.89 934.496 671.149 940.636 697.463C941.231 700.01 942.255 704.292 942.912 706.974C946.397 721.211 946.427 729.952 943.063 750.878C939.384 773.753 936.485 776.414 912.736 778.701C901.906 779.744 818.193 779.904 799.116 778.917ZM678.164 778.91C660.346 777.749 654.427 774.738 648.47 763.805C647.093 761.278 643.921 752.579 640.554 742.096C638.915 736.998 637.328 732.06 637.024 731.121C636.437 729.305 636.159 728.272 634.953 723.431C632.232 712.507 633.209 701.247 637.862 689.9C638.191 689.095 638.852 687.34 639.331 685.999C640.178 683.624 644.564 673.628 648.001 666.242C648.936 664.229 650.367 661.157 651.177 659.413C651.989 657.668 653.775 653.866 655.146 650.96C656.518 648.055 657.639 645.59 657.639 645.48C657.639 645.372 659.092 642.26 660.867 638.566C662.64 634.874 664.602 630.753 665.228 629.412C676.106 606.055 681.924 596.096 684.816 595.877C685.717 595.811 689.349 597.426 690.914 598.59C693.197 600.288 699.372 611.456 704.316 622.827C705.19 624.839 706.81 628.419 707.917 630.783C709.023 633.146 709.929 635.172 709.929 635.284C709.929 635.394 710.557 636.862 711.323 638.546C714.876 646.349 716.336 649.683 716.961 651.429C717.332 652.466 718.527 655.182 719.617 657.461C720.705 659.741 722.3 663.254 723.16 665.266C724.019 667.278 725.262 670.103 725.92 671.542C727.195 674.339 729.385 679.388 732.406 686.5C733.435 688.923 734.98 692.435 735.84 694.306C736.699 696.176 737.804 698.722 738.296 699.962C738.787 701.203 739.629 703.179 740.166 704.353C743.309 711.214 747.071 720.048 747.071 720.566C747.071 720.899 747.277 721.379 747.527 721.634C747.779 721.888 748.672 723.852 749.508 725.999C750.346 728.146 751.215 730.34 751.438 730.877C764.014 761.14 763.147 771.921 747.79 776.194C737.018 779.191 702.898 780.524 678.164 778.91ZM536.935 779.188C499.676 778.368 491.169 772.224 489.28 744.78C489.106 742.231 488.98 729.061 489.002 715.51C489.111 647.211 489.77 644.783 508.59 643.243C516.24 642.617 534.594 642.94 536.935 643.743C537.875 644.065 539.744 644.682 541.088 645.114C542.432 645.546 543.75 646.064 544.019 646.268C544.288 646.471 545.827 647.353 547.44 648.227C553.335 651.429 564.262 659.291 582.138 673.194C586.05 676.238 587.179 677.115 593.485 682.01C620.367 702.885 627.089 710.71 632.942 727.951C633.671 730.097 634.45 732.292 634.673 732.828C635.424 734.635 642.365 756.709 642.914 759.032C645.978 772.027 641.612 776.423 623.571 778.508C619.183 779.013 562.066 779.851 552.083 779.553C549.799 779.485 542.981 779.322 536.935 779.188ZM961.36 778.252C944.249 775.716 942.222 772.522 945.226 752.829C948.275 732.858 952.178 726.767 963.315 724.611C964.122 724.457 966.32 723.985 968.202 723.562C971.983 722.717 980.839 721.307 987.994 720.416C990.548 720.096 994.725 719.537 997.279 719.17C999.832 718.804 1004.01 718.254 1006.56 717.951C1009.12 717.646 1012.64 717.194 1014.38 716.946C1018.89 716.306 1030.53 715.512 1035.15 715.531C1047.59 715.578 1054.44 720.153 1063.96 734.78C1066.76 739.07 1067.59 740.358 1072.23 747.57C1073.47 749.505 1074.49 751.242 1074.49 751.425C1074.49 751.611 1075.04 752.482 1075.72 753.364C1076.39 754.246 1078.26 757.558 1079.87 760.721C1086.52 773.79 1082.65 777.688 1061.78 778.917C1048.75 779.687 967.399 779.147 961.36 778.252ZM773.925 767.207C773.412 766.933 772.112 765.417 771.038 763.838C768.067 759.469 764.99 753.171 756.011 733.073C755.352 731.597 754.409 729.511 753.918 728.438C752.502 725.356 751.228 722.43 749.022 717.199C747.895 714.527 746.115 710.517 745.067 708.288C744.018 706.058 743.16 704.16 743.16 704.068C743.16 703.78 731.452 676.775 730.94 675.883C730.673 675.416 730.454 674.777 730.454 674.459C730.454 674.141 730.171 673.534 729.823 673.11C729.475 672.687 728.891 671.461 728.527 670.388C728.16 669.315 727.107 666.804 726.185 664.808C725.262 662.813 723.856 659.519 723.058 657.49C721.565 653.686 720.764 651.817 719.166 648.406C718.654 647.314 718.237 646.158 718.237 645.836C718.237 645.517 718.016 644.872 717.745 644.407C717.182 643.434 714.505 636.96 713.766 634.778C713.494 633.973 713.089 632.876 712.866 632.339C712.643 631.803 711.864 629.498 711.133 627.217C710.404 624.937 709.596 622.411 709.338 621.607C709.079 620.803 708.747 617.813 708.6 614.965L708.331 609.786L710.008 607.959C712.658 605.073 720.567 604.75 733.387 607.005C735.941 607.453 739.568 607.999 741.449 608.216C772.706 611.818 776.582 617.074 781.713 662.827C781.938 664.84 782.358 667.913 782.643 669.657C783.208 673.09 784.127 679.941 784.444 683.071C784.624 684.848 786.16 696.987 787.684 708.681C788.78 717.091 788.548 731.002 787.207 737.219C786.57 740.17 785.889 743.462 785.694 744.535C784.648 750.249 783.392 753.693 779.46 761.609C776.457 767.655 775.871 768.247 773.925 767.207ZM789.807 743.778C788.925 742.806 788.923 742.646 789.779 738.29C791.858 727.723 794.922 721.625 805.396 707.218C807.386 704.482 811.287 698.9 813.239 695.998C814.053 694.791 816.045 692.008 817.667 689.814C819.289 687.62 821.458 684.657 822.485 683.229C823.511 681.801 826.438 677.78 828.99 674.292C831.542 670.803 834.197 667.071 834.891 665.997C835.587 664.926 836.726 663.369 837.426 662.542C838.126 661.715 840.569 658.455 842.854 655.298C848.62 647.323 857.034 637.827 860.276 635.629C864.955 632.459 870.662 631.45 874.674 633.084C876.835 633.964 883.8 638.289 885.395 639.74C886.082 640.365 886.864 640.876 887.133 640.876C887.4 640.876 888.367 641.644 889.278 642.584C890.189 643.523 891.169 644.296 891.45 644.304C891.907 644.315 895.123 646.583 899.227 649.786C918.839 665.09 918.8 670.191 898.975 683.698C894.179 686.965 889.167 690.145 888.812 690.145C888.591 690.145 886.082 691.681 883.237 693.559C880.394 695.438 877.955 696.974 877.817 696.974C877.679 696.974 876.189 697.816 874.505 698.845C872.82 699.874 871.22 700.806 870.949 700.918C870.681 701.03 865.512 704.057 859.466 707.648C845.72 715.808 832.902 723.351 828.436 725.905C826.556 726.982 824.466 728.208 823.794 728.631C823.122 729.052 821.802 729.789 820.861 730.268C819.92 730.746 818.052 731.786 816.708 732.578C815.364 733.37 813.935 734.175 813.532 734.368C813.129 734.563 811.7 735.365 810.356 736.151C798.153 743.298 791.582 745.737 789.807 743.778ZM957.45 719.234C949.8 717.582 947.115 713.733 943.788 699.657C943.346 697.779 942.789 695.474 942.551 694.535C942.314 693.596 941.901 691.839 941.638 690.634C941.373 689.426 940.824 687.011 940.419 685.267C937.385 672.22 938.035 669.912 946.981 661.997C952.25 657.334 956.454 654.496 959.405 653.607C960.211 653.362 963.73 652.131 967.224 650.87C970.719 649.608 974.896 648.182 976.509 647.702C978.122 647.22 981.602 646.046 984.242 645.088C1000.24 639.294 1010.54 638.88 1017.07 643.765C1017.34 643.967 1018.84 644.638 1020.41 645.259C1028.56 648.487 1035.73 654.263 1036.68 658.363C1036.84 659.074 1037.48 661.193 1038.09 663.072C1038.71 664.95 1040.02 669.998 1041.02 674.292C1042.01 678.583 1043.12 683.194 1043.48 684.536C1048.87 704.64 1045.33 709.567 1022.94 713.136C1017.02 714.079 1013.57 714.571 1009.98 714.989C1002.58 715.85 994.14 716.973 993.398 717.196C992.98 717.323 989.997 717.664 986.771 717.958C983.546 718.252 978.599 718.785 975.776 719.142C969.089 719.989 961.13 720.03 957.45 719.234ZM792.918 705.141C792.199 704.272 791.506 703.122 791.379 702.585C791.252 702.048 790.779 700.291 790.328 698.681C789.875 697.072 789.304 694.493 789.058 692.949C788.811 691.407 788.384 688.774 788.111 687.096C787.837 685.42 787.406 682.51 787.152 680.632C786.898 678.754 786.476 675.681 786.213 673.803C785.95 671.924 785.489 668.194 785.188 665.51C784.887 662.827 784.427 658.986 784.166 656.974C779.346 619.837 780.181 612.386 790.516 600.387C804.118 584.594 819.527 571.12 823.984 571.12C825.543 571.12 830.575 572.417 831.304 573.007C831.608 573.253 834.276 574.714 837.233 576.253C852.021 583.955 854.775 587.272 858.288 601.607C858.682 603.217 859.201 605.193 859.44 605.998C861.639 613.368 860.773 621.882 857.33 626.791C856.894 627.414 856.537 628.204 856.537 628.55C856.537 630.208 842.902 650.396 832.943 663.48C832.365 664.241 831.553 665.369 831.14 665.985C829.084 669.059 824.49 675.593 822.555 678.193C821.358 679.803 819.793 681.994 819.077 683.062C818.363 684.128 817.479 685.298 817.116 685.66C816.754 686.022 816.203 686.791 815.894 687.368C814.907 689.211 805.882 700.043 802.936 702.923C798.066 707.683 795.494 708.251 792.918 705.141ZM613.658 691.701C607.927 688.895 592.645 678.449 590.69 676.001C590.556 675.834 589.017 674.661 587.269 673.395C585.522 672.128 582.635 669.947 580.853 668.547C579.071 667.144 575.773 664.582 573.523 662.851C545.354 641.179 545.183 638.641 569.878 608.437C570.975 607.095 572.203 605.577 572.606 605.062C581.159 594.166 590.025 587.087 599.242 583.802C600.855 583.227 602.613 582.567 603.151 582.334C604.802 581.619 622.385 576.071 634.916 572.312C637.335 571.586 640.854 570.506 642.735 569.91C644.617 569.315 647.695 568.451 649.577 567.99C651.459 567.528 653.793 566.946 654.765 566.696C660.23 565.29 668.612 567.806 671.38 571.686C678.008 580.976 678.989 592.644 673.954 602.276C673.585 602.982 673.283 603.717 673.282 603.91C673.28 604.103 672.727 605.461 672.055 606.928C671.385 608.394 670.835 609.73 670.835 609.9C670.835 610.067 670.207 611.563 669.439 613.224C668.67 614.884 666.985 618.547 665.692 621.364C664.402 624.181 662.202 628.901 660.802 631.851C656.809 640.283 655.428 643.256 650.159 654.77C633.843 690.413 626.401 697.944 613.658 691.701ZM930.851 668.615C928.133 667.749 926.784 667.091 925.197 665.86C924.39 665.235 921.093 662.765 917.867 660.372C914.641 657.977 910.902 655.136 909.558 654.057C908.216 652.976 905.576 651.012 903.694 649.69C901.812 648.369 899.614 646.654 898.808 645.879C898.001 645.105 896.681 644.048 895.875 643.532C893.816 642.21 893.663 642.096 891.478 640.244C890.403 639.334 889.134 638.379 888.659 638.123C887.164 637.316 877.084 629.044 874.181 626.242C868.484 620.746 865.187 615.779 863.885 610.736C859.529 593.877 859.201 592.106 859.949 589.439C861.092 585.366 865.382 582.689 880.726 576.468C887.669 573.654 891.76 572.095 892.203 572.095C892.502 572.095 893.671 571.645 894.799 571.094C905.137 566.056 915.593 564.777 918.961 568.14C921.755 570.928 925.904 580.95 934.227 605.022C936.906 612.768 937.232 613.673 939.399 619.412C940.261 621.693 941.117 624.262 941.301 625.122C941.485 625.984 942.037 627.521 942.527 628.537C943.017 629.555 943.685 631.376 944.013 632.584C944.341 633.791 944.812 635.217 945.061 635.754C946.222 638.261 948.851 649.35 948.877 651.852C948.921 656.033 943.893 662.287 936.503 667.245C933.312 669.388 933.296 669.392 930.851 668.615ZM1031.67 647.274C1025.09 645.166 1010.94 637.544 1009.22 635.181C1004.15 628.197 1002.96 599.222 1007.41 591.185C1009.47 587.465 1017.14 577.118 1019.76 574.534C1020.34 573.963 1023.05 570.695 1024.4 568.94C1029.78 561.967 1038.73 552.488 1042.55 549.729C1046.3 547.018 1054.24 545.605 1064.47 545.829C1075.5 546.07 1075.71 546.862 1075.71 587.217C1075.71 622.127 1075.58 623.001 1069.17 629.755C1067.19 631.847 1065.39 633.558 1065.18 633.558C1064.97 633.558 1061.8 635.425 1058.13 637.706C1054.47 639.985 1051.33 641.852 1051.17 641.852C1051 641.852 1050.51 642.177 1050.07 642.574C1048.56 643.934 1041.02 647.388 1038.82 647.726C1035.25 648.273 1034.69 648.237 1031.67 647.274ZM958.952 647.865C954.454 647.125 948.524 637.726 944.232 624.534C943.621 622.656 942.741 620.241 942.277 619.168C941.811 618.094 941.259 616.558 941.049 615.753C940.839 614.948 939.972 612.425 939.119 610.144C929.046 583.163 926.318 571.559 928.973 566.988C930.162 564.941 933.758 562.765 939.858 560.403C941.47 559.78 943.45 558.984 944.256 558.639C951.797 555.399 957.746 555.939 963.315 560.374C967.62 563.801 969.139 565.055 969.875 565.79C970.299 566.212 973.165 568.846 976.246 571.643C1000.02 593.229 1000.68 594.364 1002.35 616.321C1003.31 628.895 1002.41 633.369 998.374 636.16C996.406 637.522 983.603 642.828 982.286 642.828C981.88 642.828 980.963 643.144 980.25 643.53C975.174 646.279 963.608 648.634 958.952 647.865ZM500.406 639.117C494.493 637.487 492.495 633.744 490.676 620.875C488.653 606.562 489.719 495.754 491.935 489.988C492.226 489.233 492.464 487.978 492.464 487.2C492.464 484.063 494.953 482.338 499.478 482.339C509.163 482.347 518.941 485.271 522.537 489.237C524.258 491.135 528 496.132 528.828 497.643C529.425 498.727 531.778 502.381 537.669 511.362C544.522 521.807 565.181 554.873 569.064 561.607C581.453 583.1 581.16 589.985 567.124 607.078C565.973 608.479 563.23 611.881 561.026 614.639C552.75 624.997 551.397 626.574 547.792 630.057C543.756 633.955 541.038 635.984 538.347 637.107C531.68 639.887 507.795 641.152 500.406 639.117ZM1139 634.613C1137.25 634.315 1134.83 633.959 1133.62 633.819C1132.41 633.679 1129.44 633.336 1127.03 633.058C1124.61 632.779 1121.31 632.354 1119.7 632.115C1112.05 630.981 1105.79 630.033 1103.57 629.673C1100.83 629.228 1093.83 627.418 1092.33 626.765C1091.79 626.532 1090.58 626.05 1089.64 625.696C1084.66 623.81 1081.5 618.793 1079.86 610.144C1079.02 605.755 1079.2 566.064 1080.08 560.23C1081.43 551.304 1085.48 542.552 1090.42 537.89C1091.38 536.982 1092.42 535.945 1092.74 535.583C1094.26 533.828 1097.26 531.15 1102.81 526.596C1106.15 523.852 1109.76 520.767 1110.84 519.741C1111.92 518.716 1113.4 517.565 1114.14 517.183C1114.88 516.802 1115.77 516.084 1116.12 515.589C1116.47 515.093 1117.66 514.123 1118.77 513.432C1119.87 512.741 1122.11 511.059 1123.75 509.695C1125.39 508.332 1126.92 507.216 1127.15 507.216C1127.38 507.216 1128.31 506.448 1129.22 505.509C1130.14 504.57 1131.07 503.802 1131.31 503.802C1131.55 503.802 1132.01 503.526 1132.35 503.191C1132.69 502.855 1133.68 502.032 1134.55 501.361C1135.43 500.692 1137.43 499.154 1139 497.946C1151.35 488.476 1158.38 485.442 1162.11 487.974C1163.94 489.213 1165.88 492.278 1165.88 493.927C1165.88 494.421 1166.07 495.033 1166.32 495.289C1166.77 495.765 1166.84 496.23 1167.78 505.752C1170.27 531.014 1169.28 614.413 1166.4 621.119C1166.17 621.656 1165.71 623.082 1165.39 624.29C1164.8 626.438 1162.57 629.774 1160.9 631.009C1160.44 631.351 1159.72 631.97 1159.3 632.389C1158.39 633.301 1153.29 635.155 1152.7 634.791C1152.47 634.648 1151.82 634.703 1151.26 634.909C1149.85 635.433 1142.82 635.263 1139 634.613ZM759.39 607.224C751.887 606.461 746.052 605.748 743.405 605.268C742.061 605.026 738.432 604.482 735.341 604.061C729.659 603.287 728.63 603.138 716.771 601.361C697.883 598.531 695.747 597.957 688.916 593.888C683.192 590.477 681.931 588.814 678.855 580.617C675.274 571.074 677.277 567.471 694.567 552.363C696.699 550.499 699.88 547.645 701.635 546.022C706.698 541.337 713.91 534.815 716.02 533.016C717.084 532.106 718.314 531.033 718.754 530.63C731.193 519.245 739.389 515.446 749.269 516.492C755.38 517.137 768.372 520.112 774.925 522.366C775.597 522.597 778.235 523.336 780.789 524.009C783.343 524.681 786.972 525.698 788.853 526.264C790.735 526.831 792.933 527.467 793.74 527.675C805.648 530.759 810.034 535.23 814.392 548.727C819.889 565.759 820.062 565.316 799.876 585.951C793.467 592.501 785.893 599.812 784.142 601.135C783.777 601.411 782.708 602.216 781.767 602.925C776.823 606.648 768.838 608.181 759.39 607.224ZM996.301 584.674C994.83 583.944 990.38 580.584 987.926 578.348C961.697 554.463 959.333 551.477 961.577 545.061C964.122 537.778 966.445 535.712 979.442 529.177C982.668 527.554 986.076 525.808 987.016 525.295C987.957 524.782 989.386 524.053 990.192 523.674C990.999 523.295 992.427 522.546 993.368 522.009C1001.69 517.258 1008.74 517.589 1015.37 523.044C1017.79 525.04 1019.29 526.354 1025.03 531.529C1026.03 532.426 1027.18 533.415 1027.58 533.725C1030.65 536.065 1035.89 543.276 1035.89 545.155C1035.89 547.74 1032.82 553.871 1029.58 557.762C1028.13 559.501 1026.2 561.917 1024.56 564.046C1023.4 565.547 1022.56 566.553 1020.71 568.681C1020.13 569.352 1018.85 570.886 1017.87 572.094C1007.52 584.868 1002.54 587.77 996.301 584.674ZM846.518 577.602C833.946 571.447 826.127 566.192 823.281 561.984C821.39 559.186 815.487 543.247 815.487 540.937C815.487 540.455 815.321 539.9 815.121 539.704C813.318 537.947 814.009 527.833 816.154 524.565C816.592 523.896 816.953 523.13 816.953 522.864C816.953 522.599 817.643 521.219 818.486 519.798C819.331 518.377 820.405 516.558 820.872 515.753C821.34 514.948 822.745 512.533 823.993 510.387C825.241 508.24 827.138 505.09 828.206 503.386C829.273 501.683 830.146 500.205 830.146 500.104C830.146 499.913 837.176 489.61 838.455 487.928C839.742 486.234 844.006 482.768 845.779 481.97C853.438 478.533 882.484 475.775 888.273 477.936C891.393 479.101 895.142 483.018 895.142 485.113C895.142 485.649 895.49 486.783 895.913 487.632C896.337 488.48 896.992 490.983 897.37 493.195C897.747 495.406 898.268 498.093 898.526 499.167C898.977 501.032 899.964 507.994 900.29 511.605C900.507 514.018 901.499 520 901.75 520.403C901.866 520.588 902.09 522.252 902.25 524.097C902.412 525.942 902.748 528.528 902.996 529.84C903.247 531.152 903.451 533.242 903.451 534.48C903.451 535.721 903.674 537.502 903.944 538.439C906.165 546.086 904.244 559.175 900.334 563.062C897.318 566.058 883.725 572.886 877.795 574.383C877.257 574.519 876.123 574.939 875.276 575.313C874.429 575.69 873.398 575.997 872.984 575.997C872.57 575.997 872.102 576.207 871.944 576.462C871.397 577.346 862.138 580.027 858.49 580.358C853.499 580.809 852.687 580.621 846.518 577.602ZM588.081 576.789C582.434 573.634 575.932 566.122 567.965 553.55C566.083 550.58 563.209 546.114 561.578 543.624C559.947 541.133 557.772 537.686 556.745 535.962C554.727 532.571 552.234 528.655 550.042 525.429C549.283 524.312 548.663 523.262 548.663 523.097C548.663 522.933 547.342 520.708 545.73 518.151C544.117 515.597 542.799 513.397 542.799 513.265C542.799 513.13 541.69 510.789 540.335 508.058C534.084 495.458 537.224 492.734 555.652 494.774C561.67 495.441 564.953 495.925 578.96 498.209C581.514 498.626 585.143 499.196 587.024 499.474C588.906 499.753 591.434 500.174 592.644 500.409C593.853 500.644 597.482 501.295 600.708 501.855C622.969 505.72 630.424 509.868 637.09 522.094C637.676 523.167 638.694 524.924 639.353 525.997C640.014 527.07 640.762 528.438 641.018 529.039C641.634 530.481 643.144 533.558 643.836 534.776C644.779 536.438 649.643 547.055 651.214 550.874C653.569 556.602 652.265 560.574 646.889 564.055C642.155 567.12 617.606 575.124 602.906 578.397C598.331 579.415 591.445 578.669 588.081 576.789ZM666.307 564.781C662.719 562.939 655.686 554.162 655.686 551.528C655.686 551.267 655.17 550.356 654.541 549.501C653.913 548.646 653.103 547.18 652.742 546.241C652.383 545.302 649.397 539.156 646.11 532.582C637.109 514.584 634.721 507.595 635.316 500.969C635.63 497.459 638.293 486.721 639.694 483.313C639.859 482.911 641.566 477.971 643.488 472.338C648.378 457.997 648.741 456.987 649.831 454.66C650.363 453.522 650.798 452.374 650.798 452.105C650.798 451.433 653.705 446.763 655.108 445.182C659.595 440.128 667.672 443.212 686.228 457.067C688.648 458.874 691.593 461.072 692.775 461.954C693.959 462.835 695.718 464.226 696.686 465.045C697.653 465.863 700.753 468.168 703.574 470.167C708.125 473.389 715.631 479.182 724.274 486.135C732.336 492.622 735.074 497.463 735.088 505.265C735.099 510.298 733.343 512.544 718.481 526.484C714.26 530.445 710.233 534.12 706.724 537.215C704.596 539.093 701.53 541.837 699.914 543.313C698.295 544.789 695.471 547.314 693.633 548.924C691.798 550.534 689.697 552.399 688.964 553.07C686.449 555.373 684.269 557.231 681.83 559.148C680.486 560.205 679.166 561.317 678.897 561.62C675.375 565.588 670.339 566.852 666.307 564.781ZM915.555 563.29C911.318 562.116 909.987 557.773 906.888 535.021C906.358 531.13 905.703 526.631 905.432 525.021C905.161 523.411 904.707 519.899 904.421 517.216C904.136 514.533 903.593 510.363 903.212 507.948C901.794 498.946 901.499 496.599 901.137 491.361C900.037 475.505 900.64 473.895 910.085 467.403C919.839 460.701 924.188 460.923 927.944 468.319C928.522 469.456 929.153 470.496 929.348 470.631C929.543 470.765 930.094 471.641 930.573 472.581C931.051 473.52 931.852 474.812 932.351 475.451C932.852 476.091 933.261 476.929 933.261 477.313C933.261 477.697 933.809 478.732 934.481 479.61C935.153 480.491 935.704 481.544 935.704 481.952C935.704 482.36 936.144 483.251 936.682 483.935C937.219 484.617 937.659 485.401 937.659 485.681C937.659 485.96 938.399 487.461 939.305 489.018C940.211 490.575 941.251 492.727 941.616 493.8C941.98 494.873 942.779 496.432 943.391 497.261C944 498.091 944.501 498.911 944.501 499.082C944.501 499.716 951.223 513.787 952.116 515.02C952.407 515.422 953.147 516.96 953.764 518.434C954.379 519.91 955.735 522.899 956.778 525.074C957.82 527.25 958.672 529.458 958.672 529.978C958.672 530.498 958.854 531.132 959.079 531.387C961.625 534.291 960.705 541.012 956.943 546.989C954.728 550.508 953.18 551.613 946.902 554.149C943.834 555.388 939.894 556.988 938.147 557.709C936.4 558.427 932.992 559.78 930.573 560.714C928.153 561.647 925.515 562.711 924.709 563.075C922.943 563.875 918.073 563.989 915.555 563.29ZM1047.86 542.385C1043.79 541.747 1036.57 538.147 1035.97 536.454C1035.88 536.203 1035.55 535.997 1035.23 535.997C1034.92 535.997 1033.43 534.844 1031.93 533.435C1030.43 532.027 1027.47 529.338 1025.35 527.46C1015.77 518.954 1010.96 513.371 1010.96 510.747C1010.96 510.254 1010.69 509.574 1010.35 509.24C1008.36 507.244 1010.57 477.82 1013.02 473.801C1013.51 472.996 1014.03 472.007 1014.19 471.605C1014.65 470.434 1019.69 466.994 1023.67 465.136C1031.64 461.414 1034.03 460.387 1034.69 460.387C1035.07 460.387 1036.76 459.657 1038.44 458.767C1040.13 457.878 1042.71 456.751 1044.19 456.262C1045.67 455.774 1047.32 455.208 1047.86 455.002C1054.34 452.537 1059.39 451.716 1069.12 451.541C1070.24 451.521 1084 452.975 1088.42 453.579C1098.49 454.956 1099.61 455.129 1109.07 456.724C1111.56 457.143 1115.08 457.683 1116.89 457.922C1139.59 460.929 1153.73 464.68 1155.62 468.195C1158.13 472.887 1150.72 481.913 1129.72 499.742C1128.51 500.767 1126.53 502.552 1125.32 503.71C1124.11 504.866 1121.91 506.726 1120.43 507.841C1118.95 508.957 1117.06 510.425 1116.22 511.103C1114.27 512.691 1113.34 513.424 1110.65 515.496C1109.44 516.428 1108.35 517.306 1108.21 517.449C1108.08 517.591 1106.43 518.857 1104.55 520.261C1100.35 523.395 1100.83 523.025 1096.85 526.164C1092.72 529.417 1083.33 535.997 1082.81 535.997C1082.6 535.997 1082.17 536.309 1081.85 536.693C1079.39 539.648 1070.55 542.085 1060.58 542.558C1056.82 542.736 1053.64 542.986 1053.51 543.115C1053.39 543.243 1052.72 543.234 1052.04 543.096C1051.35 542.958 1049.47 542.639 1047.86 542.385ZM966.812 527.949C963.157 526.423 960.014 522.264 954.281 511.362C952.869 508.679 951.328 505.935 950.856 505.265C950.383 504.594 949.511 502.837 948.918 501.361C948.323 499.887 947.657 498.349 947.434 497.946C947.102 497.349 944.039 491.207 942.566 488.191C942.098 487.232 941.034 485.21 940.513 484.289C940.287 483.887 939.869 483.008 939.587 482.338C939.305 481.667 938.394 479.801 937.56 478.191C935.376 473.97 935.448 474.115 933.743 470.386C927.592 456.928 928.304 450.668 936.901 442.655C939.368 440.356 945.166 439.9 947.668 441.808C947.942 442.017 949.374 442.571 950.853 443.037C952.331 443.504 955.301 444.723 957.45 445.743C959.6 446.763 963.01 448.362 965.026 449.293C972.961 452.965 976.516 454.743 976.673 455.116C976.761 455.333 977.05 455.507 977.314 455.507C977.866 455.507 982.651 457.562 984.816 458.731C985.623 459.164 987.823 460.278 989.704 461.203C991.586 462.127 993.455 463.081 993.858 463.32C994.261 463.56 995.69 464.397 997.034 465.18C1006.32 470.587 1008.15 476.153 1006.54 494.045C1006.31 496.594 1005.99 500.306 1005.83 502.295C1005.55 505.684 1005.1 507.154 1003.4 510.142C1002.59 511.577 998.273 515.509 997.513 515.509C997.222 515.509 996.712 515.781 996.378 516.115C994.766 517.723 977.612 526.401 973.353 527.761C969.98 528.84 969.016 528.868 966.812 527.949ZM795.45 524.045C791.751 523.397 784.096 521.586 780.056 520.405C779.25 520.169 776.501 519.436 773.947 518.774C771.394 518.113 766.226 516.657 762.464 515.536C758.701 514.417 755.072 513.388 754.4 513.248C753.728 513.11 752.739 512.809 752.202 512.579C751.664 512.351 749.794 511.695 748.048 511.124C741.834 509.087 739.36 506.591 738.018 501.006C736.569 494.986 737.957 485.73 741.264 479.344C741.77 478.368 742.182 477.304 742.182 476.978C742.182 476.653 742.499 475.696 742.884 474.85C743.27 474.005 744.18 471.605 744.907 469.519C745.634 467.433 746.419 465.608 746.649 465.466C746.881 465.323 747.071 464.878 747.071 464.476C747.071 464.075 747.866 461.838 748.838 459.504C749.812 457.172 750.952 454.386 751.37 453.313C751.789 452.239 752.863 449.766 753.756 447.814C754.647 445.862 755.378 444.107 755.376 443.912C755.376 443.486 758.165 436.752 759.065 435.008C759.415 434.33 760.187 432.354 760.781 430.617C761.374 428.881 762.026 427.239 762.23 426.971C762.433 426.703 764.073 422.86 765.876 418.434C767.678 414.007 769.319 410.166 769.521 409.898C769.724 409.629 770.611 407.654 771.491 405.507C778.407 388.645 784.911 380.579 789.374 383.332C790.878 384.26 796.428 390.113 796.428 390.771C796.428 390.926 797.527 392.857 798.871 395.066C800.215 397.275 801.314 399.358 801.314 399.692C801.314 400.029 801.48 400.376 801.68 400.466C801.883 400.556 802.524 401.616 803.105 402.824C807.187 411.289 813.931 425.255 815.71 428.921C818.678 435.048 822.817 443.875 822.817 444.079C822.817 444.173 823.822 446.399 825.052 449.025C826.28 451.651 827.565 454.46 827.907 455.265C829.686 459.46 830.796 462.404 831.676 465.264C832.214 467.008 832.95 469.092 833.313 469.897C835.927 475.69 833.727 489.711 829.369 495.02C829.04 495.423 828.06 497.07 827.195 498.68C814.889 521.561 808.841 526.394 795.45 524.045ZM607.304 499.143C605.02 498.975 602.492 498.744 601.685 498.626C600.879 498.51 598.789 498.226 597.042 497.992C595.295 497.761 593.316 497.433 592.644 497.264C591.972 497.097 589.773 496.765 587.757 496.526C585.741 496.285 581.343 495.62 577.984 495.046C569.471 493.592 566.461 493.094 563.079 492.582C561.466 492.337 558.827 491.918 557.215 491.652C552.564 490.882 545.196 489.737 542.799 489.411C541.589 489.246 539.72 488.913 538.645 488.673C537.57 488.43 534.821 487.89 532.536 487.471C519.28 485.039 517.765 483.637 523.294 478.923C524.708 477.715 526.652 476.058 527.613 475.24C529.301 473.799 540.853 465.222 549.883 458.703C552.303 456.955 557.235 453.383 560.842 450.762C571.121 443.295 575.519 440.128 579.126 437.603C580.963 436.316 583.208 434.714 584.114 434.043C595.44 425.652 612.091 413.91 620.202 408.595C622.113 407.343 623.912 406.108 624.199 405.853C625.46 404.732 634.706 399.475 637.514 398.283C646.198 394.59 648.249 396.913 650.991 413.555C653.175 426.819 653.09 432.428 650.573 441.361C648.34 449.282 648.04 450.242 646.141 455.507C645.125 458.324 643.144 463.923 641.737 467.947C637.935 478.827 637.525 479.954 636.547 482.211C636.052 483.347 635.649 484.446 635.649 484.65C635.645 485.622 632.351 491.152 630.411 493.44C626.962 497.507 619.075 500.29 612.925 499.608C612.119 499.519 609.589 499.31 607.304 499.143ZM501.414 478.73C490.648 477.116 490.094 473.93 490.291 414.775C490.448 367.51 491.193 360.423 496.884 352.056C504.691 340.584 513.913 339.165 580.671 339.165C658.048 339.165 657.516 338.943 650.256 368.19C649.172 372.551 647.138 377.899 645.447 380.823C643.146 384.808 633.778 393.942 625.885 399.896C623.928 401.372 622.082 402.807 621.781 403.085C621.041 403.769 613.294 409.411 609.63 411.934C608.004 413.055 606.542 414.16 606.378 414.391C606.112 414.77 595.315 422.553 588.251 427.458C586.706 428.531 583.644 430.728 581.446 432.336C575.854 436.434 572.896 438.575 571.82 439.303C571.314 439.647 567.906 442.062 564.25 444.669C516.26 478.895 513.281 480.509 501.414 478.73ZM722.71 477.633C718.914 476.532 707.481 469.51 700.425 463.946C699.335 463.088 696.686 461.129 694.536 459.593C692.385 458.058 688.756 455.364 686.473 453.607C684.188 451.85 680.867 449.308 679.094 447.959C659.729 433.234 656.608 428.84 653.449 411.831C649.424 390.174 649.546 381.871 654.165 363.068C654.693 360.921 655.481 357.648 655.918 355.794C659.698 339.751 663.785 338.798 727.523 339.066C784.584 339.305 783.891 339.088 783.895 356.726C783.897 364.367 782.752 369.081 778.327 379.652C777.206 382.336 776.171 385.08 776.03 385.75C775.888 386.421 775.619 387.189 775.433 387.458C775.245 387.726 774.697 389.044 774.213 390.385C773.726 391.727 773.139 393.032 772.905 393.287C772.673 393.543 772.482 394.03 772.482 394.372C772.482 394.714 771.955 396.151 771.315 397.566C770.672 398.983 768.102 405.081 765.605 411.116C763.107 417.153 760.091 424.398 758.902 427.214C757.712 430.031 756.401 433.214 755.989 434.288C754.413 438.386 750.305 447.989 749.729 448.922C749.398 449.459 748.969 450.446 748.777 451.117C748.061 453.625 741.466 466.547 739.209 469.866C733.855 477.739 729.745 479.675 722.71 477.633ZM848.738 474.012C842.97 471.913 836.288 463.641 829.656 450.385C828.449 447.97 827.324 445.886 827.158 445.752C826.992 445.618 826.689 444.958 826.484 444.287C826.278 443.616 825.698 442.486 825.195 441.773C824.695 441.062 824.282 440.275 824.282 440.029C824.282 439.781 822.993 436.96 821.415 433.762C819.839 430.564 818.079 426.916 817.507 425.659C816.934 424.4 816.246 423.235 815.977 423.069C815.706 422.902 815.487 422.435 815.487 422.029C815.487 421.625 813.86 417.96 811.869 413.888C809.881 409.815 807.36 404.616 806.267 402.337C805.175 400.056 803.847 397.421 803.315 396.482C802.783 395.544 801.977 393.898 801.524 392.824C801.069 391.751 799.558 388.458 798.162 385.506C789.218 366.584 786.822 359.291 786.55 350.141C786.219 339.095 788.463 338.748 858.003 339.07C908.676 339.303 913.522 339.579 922.265 342.721C935.849 347.606 937.111 352.386 937.3 399.654C937.447 436.225 937.486 435.964 930.501 445.741C928.927 447.943 927.327 450.216 926.942 450.797C925.699 452.671 920.923 457.001 918.631 458.33C917.405 459.041 914.717 460.728 912.658 462.079C901.485 469.405 895.779 471.899 888.578 472.608C883.348 473.121 871.491 474.372 866.31 474.957C859.533 475.721 852.374 475.337 848.738 474.012ZM1004.85 463.228C1001.68 462.375 997.697 461.017 995.079 459.901C993.735 459.328 992.195 458.677 991.658 458.453C988.992 457.349 982.086 454.129 970.4 448.544C955.988 441.655 947.885 436.101 945.626 431.56C943.426 427.135 942.87 425.383 941.614 418.921C940.338 412.349 939.583 362.107 940.629 353.344C941.573 345.441 944.153 341.264 948.993 339.801C952.016 338.888 975.496 338.913 979.197 339.834C988.386 342.12 996.34 350.532 1010.72 373.169C1010.99 373.591 1012.44 375.773 1013.95 378.015C1016.72 382.121 1022.62 391.113 1028.46 400.141C1030.2 402.824 1032.22 405.897 1032.95 406.97C1033.69 408.043 1034.67 409.69 1035.15 410.629C1035.63 411.568 1036.17 412.447 1036.34 412.581C1036.98 413.066 1042.18 421.702 1044.35 425.879C1045.58 428.232 1047 430.693 1047.52 431.349C1048.37 432.428 1049.41 435.019 1050.97 439.931C1052.85 445.842 1050.15 449.676 1041.26 453.719C1038.97 454.757 1036.89 455.783 1036.62 455.998C1036.35 456.211 1034.4 456.963 1032.29 457.668C1030.17 458.374 1027.54 459.398 1026.42 459.944C1023.65 461.304 1020.69 462.322 1019.49 462.329C1018.94 462.335 1018.24 462.585 1017.94 462.886C1016.66 464.16 1009.05 464.358 1004.85 463.228ZM1140.95 457.391C1137.86 457.11 1134.42 456.817 1133.31 456.742C1132.19 456.665 1131.01 456.437 1130.68 456.231C1130.35 456.027 1127.52 455.57 1124.4 455.217C1121.27 454.864 1118.17 454.48 1117.5 454.364C1112.73 453.544 1106.22 452.493 1104.79 452.309C1103.85 452.188 1101.76 451.861 1100.15 451.583C1098.53 451.306 1096.01 450.874 1094.53 450.626C1093.05 450.378 1090.3 449.825 1088.42 449.396C1086.54 448.968 1084.23 448.509 1083.29 448.374C1082.35 448.24 1081.14 447.943 1080.6 447.713C1080.06 447.483 1077.86 446.697 1075.71 445.965C1067.06 443.023 1056.61 435.089 1051.77 427.794C1051.03 426.67 1050.26 425.751 1050.06 425.751C1049.87 425.751 1048.76 424.38 1047.59 422.702C1046.42 421.026 1045.32 419.544 1045.15 419.41C1044.85 419.179 1042.64 415.957 1039.49 411.173C1037.26 407.773 1035.95 405.81 1030.81 398.11C997.513 348.268 997.351 342.868 1029.04 339.803C1036.34 339.097 1110.24 338.891 1122.38 339.544C1141.51 340.569 1152.31 342.679 1156.27 346.164C1156.76 346.597 1158.06 347.402 1159.16 347.954C1160.25 348.505 1161.38 349.387 1161.67 349.915C1161.96 350.44 1162.77 351.859 1163.48 353.066C1164.87 355.432 1168.04 365.963 1167.66 366.948C1167.54 367.277 1167.64 369.282 1167.89 371.404C1168.29 374.808 1168.92 389.299 1168.82 392.58C1168.8 393.251 1168.71 401.922 1168.62 411.848C1168.53 421.776 1168.21 432.093 1167.9 434.776C1166.88 443.66 1165.81 448.781 1164.93 449.077C1164.64 449.17 1164.41 449.694 1164.41 450.24C1164.41 451.436 1161.22 454.634 1158.96 455.704C1154.28 457.915 1150.56 458.264 1140.95 457.391Z" fill="black"/>
</g>
<defs>
<clipPath id="clip0_192_225">
<rect width="1660" height="457" fill="white"/>
</clipPath>
</defs>
</svg>
